<svg xmlns="http://www.w3.org/2000/svg" width="746" height="158" viewBox="0 0 746 158" fill="none"><g clip-path="url(#clip0_1_18)"><path d="M160.15 56.76H179.21V65.77H179.49C180.32 64.57 181.4 63.35 182.74 62.11C184.07 60.87 185.64 59.74 187.44 58.73C189.24 57.72 191.19 56.89 193.31 56.24C195.43 55.6 197.68 55.27 200.08 55.27C205.05 55.27 209.56 56.12 213.62 57.83C217.67 59.54 221.15 61.93 224.05 65.01C226.95 68.1 229.18 71.76 230.75 75.99C232.31 80.23 233.1 84.88 233.1 89.94C233.1 94.64 232.39 99.13 230.96 103.41C229.53 107.69 227.51 111.49 224.88 114.81C222.26 118.12 219.05 120.77 215.28 122.75C211.5 124.73 207.22 125.72 202.43 125.72C198.1 125.72 194.07 125.05 190.34 123.72C186.61 122.39 183.55 120.11 181.15 116.88H180.87V155.56H160.15V56.76ZM179.21 90.5C179.21 95.57 180.66 99.66 183.56 102.79C186.46 105.92 190.54 107.49 195.79 107.49C201.04 107.49 205.11 105.93 208.01 102.79C210.91 99.66 212.36 95.56 212.36 90.5C212.36 85.44 210.91 81.34 208.01 78.21C205.11 75.08 201.03 73.51 195.79 73.51C190.55 73.51 186.47 75.08 183.56 78.21C180.66 81.34 179.21 85.44 179.21 90.5Z" fill="#E8F2E7"></path><path d="M282.81 115.64H282.53C280.23 119.23 277.16 121.81 273.34 123.38C269.52 124.95 265.49 125.73 261.25 125.73C258.12 125.73 255.1 125.29 252.2 124.42C249.3 123.55 246.74 122.23 244.53 120.48C242.32 118.73 240.57 116.57 239.28 113.99C237.99 111.41 237.35 108.42 237.35 105.01C237.35 101.14 238.06 97.87 239.49 95.2C240.92 92.53 242.85 90.32 245.29 88.57C247.73 86.82 250.52 85.46 253.65 84.5C256.78 83.53 260.03 82.82 263.39 82.36C266.75 81.9 270.11 81.62 273.47 81.53C276.83 81.44 279.94 81.39 282.79 81.39C282.79 77.71 281.48 74.78 278.85 72.62C276.23 70.46 273.12 69.37 269.53 69.37C265.94 69.37 263.01 70.08 260.21 71.51C257.4 72.94 254.89 74.89 252.68 77.38L241.63 66.05C245.5 62.46 250.01 59.76 255.17 57.97C260.33 56.17 265.67 55.28 271.19 55.28C277.27 55.28 282.26 56.04 286.18 57.56C290.09 59.08 293.22 61.31 295.57 64.26C297.92 67.21 299.55 70.82 300.47 75.1C301.39 79.38 301.85 84.33 301.85 89.95V124.07H282.79V115.64H282.81ZM277.7 94.64C276.13 94.64 274.18 94.71 271.83 94.85C269.48 94.99 267.22 95.38 265.06 96.02C262.89 96.67 261.05 97.63 259.53 98.92C258.01 100.21 257.25 102.01 257.25 104.31C257.25 106.8 258.31 108.64 260.43 109.84C262.55 111.04 264.76 111.64 267.06 111.64C269.08 111.64 271.04 111.36 272.93 110.81C274.82 110.26 276.5 109.48 277.97 108.46C279.44 107.45 280.62 106.16 281.49 104.59C282.36 103.03 282.8 101.18 282.8 99.06V94.64H277.69H277.7Z" fill="#E8F2E7"></path><path d="M380.75 118.41C380.75 131.12 377.55 140.76 371.15 147.35C364.75 153.93 355.01 157.23 341.93 157.23C335.94 157.23 330.05 156.56 324.25 155.23C318.45 153.89 313.11 151.29 308.23 147.43L319.7 130.3C322.92 132.97 326.31 135.09 329.85 136.65C333.39 138.21 337.29 139 341.52 139C347.87 139 352.55 137.46 355.54 134.37C358.53 131.28 360.03 127.35 360.03 122.56V116.07H359.75C357.35 119.29 354.38 121.57 350.84 122.91C347.29 124.24 343.95 124.91 340.82 124.91C335.85 124.91 331.33 124.06 327.28 122.35C323.23 120.65 319.75 118.25 316.85 115.17C313.95 112.09 311.72 108.43 310.15 104.19C308.58 99.95 307.8 95.3 307.8 90.24C307.8 85.82 308.51 81.49 309.94 77.25C311.37 73.01 313.39 69.28 316.02 66.06C318.64 62.84 321.84 60.24 325.62 58.26C329.4 56.28 333.68 55.29 338.47 55.29C341.42 55.29 344.11 55.61 346.55 56.26C348.99 56.91 351.18 57.73 353.11 58.75C355.04 59.76 356.7 60.89 358.08 62.13C359.46 63.37 360.57 64.6 361.39 65.79H361.67V56.95H380.73V118.42L380.75 118.41ZM328.53 90.09C328.53 92.3 328.94 94.4 329.77 96.38C330.6 98.36 331.77 100.11 333.29 101.63C334.81 103.15 336.56 104.37 338.54 105.29C340.52 106.21 342.71 106.67 345.1 106.67C347.49 106.67 349.57 106.21 351.59 105.29C353.61 104.37 355.39 103.15 356.91 101.63C358.43 100.11 359.6 98.36 360.43 96.38C361.26 94.4 361.67 92.3 361.67 90.09C361.67 87.88 361.26 85.79 360.43 83.8C359.6 81.82 358.43 80.07 356.91 78.55C355.39 77.03 353.62 75.81 351.59 74.89C349.56 73.97 347.4 73.51 345.1 73.51C342.8 73.51 340.52 73.97 338.54 74.89C336.56 75.81 334.81 77.03 333.29 78.55C331.77 80.07 330.6 81.82 329.77 83.8C328.94 85.78 328.53 87.87 328.53 90.09Z" fill="#E8F2E7"></path><path d="M390.28 90.5C390.28 85.16 391.25 80.33 393.18 76C395.11 71.67 397.76 67.97 401.12 64.88C404.48 61.8 408.44 59.42 413 57.77C417.56 56.11 422.42 55.28 427.57 55.28C432.72 55.28 437.58 56.11 442.14 57.77C446.7 59.43 450.66 61.8 454.02 64.88C457.38 67.97 460.03 71.67 461.96 76C463.89 80.33 464.86 85.16 464.86 90.5C464.86 95.84 463.89 100.68 461.96 105C460.03 109.33 457.38 113.04 454.02 116.12C450.66 119.21 446.7 121.58 442.14 123.23C437.58 124.89 432.72 125.72 427.57 125.72C422.42 125.72 417.55 124.89 413 123.23C408.44 121.57 404.48 119.2 401.12 116.12C397.76 113.04 395.11 109.33 393.18 105C391.25 100.67 390.28 95.84 390.28 90.5ZM411 90.5C411 95.57 412.45 99.66 415.35 102.79C418.25 105.92 422.33 107.49 427.58 107.49C432.83 107.49 436.9 105.93 439.8 102.79C442.7 99.66 444.15 95.56 444.15 90.5C444.15 85.44 442.7 81.34 439.8 78.21C436.9 75.08 432.82 73.51 427.58 73.51C422.34 73.51 418.25 75.08 415.35 78.21C412.45 81.34 411 85.44 411 90.5Z" fill="#E8F2E7"></path><path d="M537.12 124.07H517.23V114.95H516.95C516.21 116.24 515.27 117.53 514.12 118.82C512.97 120.11 511.56 121.26 509.91 122.27C508.25 123.28 506.36 124.11 504.25 124.76C502.13 125.4 499.83 125.73 497.34 125.73C492.09 125.73 487.83 124.92 484.56 123.31C481.29 121.7 478.76 119.47 476.96 116.61C475.16 113.76 473.97 110.39 473.37 106.53C472.77 102.66 472.47 98.47 472.47 93.96V56.94H493.19V89.82C493.19 91.75 493.26 93.76 493.4 95.83C493.54 97.9 493.95 99.81 494.64 101.56C495.33 103.31 496.39 104.74 497.82 105.84C499.25 106.95 501.3 107.5 503.97 107.5C506.64 107.5 508.81 107.02 510.46 106.05C512.12 105.08 513.38 103.79 514.26 102.18C515.13 100.57 515.71 98.75 515.99 96.72C516.27 94.7 516.4 92.58 516.4 90.37V56.94H537.12V124.08V124.07Z" fill="#E8F2E7"></path><path d="M547.62 112.19C547.62 110.44 547.94 108.78 548.59 107.22C549.23 105.66 550.13 104.3 551.28 103.15C552.43 102 553.79 101.1 555.35 100.46C556.91 99.82 558.57 99.49 560.32 99.49C562.07 99.49 563.73 99.81 565.29 100.46C566.85 101.11 568.21 102 569.36 103.15C570.51 104.3 571.41 105.66 572.05 107.22C572.69 108.79 573.02 110.44 573.02 112.19C573.02 113.94 572.7 115.6 572.05 117.16C571.4 118.73 570.51 120.08 569.36 121.23C568.21 122.38 566.85 123.28 565.29 123.92C563.72 124.56 562.06 124.89 560.32 124.89C558.58 124.89 556.91 124.57 555.35 123.92C553.78 123.28 552.43 122.38 551.28 121.23C550.13 120.08 549.23 118.72 548.59 117.16C547.94 115.59 547.62 113.94 547.62 112.19Z" fill="#E8F2E7"></path><path d="M685.41 47.97C692.1 47.97 697.24 43.33 698.21 36.42C698.69 33.01 697.82 29.84 695.78 27.49C693.74 25.14 690.74 23.85 687.33 23.85C680.69 23.85 675.21 28.59 674.3 35.12C673.8 38.66 674.67 41.92 676.73 44.29C678.79 46.66 681.88 47.97 685.41 47.97Z" fill="#3CD07B"></path><path d="M715.95 84.09L712.92 88.85C708.28 96.14 699.25 106.24 694.35 106.24C691.43 106.24 690.55 105.23 690.26 104.9C688.78 103.19 688.34 99.31 689.05 94.23C690.55 83.47 694.9 54.99 694.9 54.99H674.04L669.19 89.64C667.06 106.91 671.3 114.7 671.3 114.7C672.01 115.94 672.83 117.1 673.76 118.17C678.03 123.07 684.18 125.66 691.57 125.66C710.37 125.66 726.18 101.04 727.92 98.24L730.93 93.39L715.95 84.09Z" fill="url(#paint0_linear_1_18)"></path><path d="M669.24 89.7C663.85 97.73 655.63 106.3 652.1 106.3C650.98 106.3 650.72 105.99 650.62 105.88C649.94 105.1 649.36 102.72 649.94 98.57C650.04 97.81 650.17 96.96 650.32 96.05C652.16 84.19 656.69 60.85 656.74 60.6L657.93 54.5L637.78 52.35L636.6 57.32C633.93 52.54 626.89 51.18 621.14 51.18C601.13 51.18 584.41 66.96 581.37 88.69C579.81 99.87 582.24 109.81 588.21 116.68C593.28 122.51 600.57 125.72 608.72 125.72C618.39 125.72 626.27 121.66 632.14 116.12C632.65 117.1 633.26 118.04 633.95 118.9C634.09 119.07 634.23 119.24 634.37 119.41C637.91 123.48 643.32 125.72 649.6 125.72C657.48 125.72 665.17 120.59 671.35 114.76C671.35 114.76 667.11 106.97 669.24 89.7ZM611.07 106.3C608.42 106.3 606.16 105.31 604.54 103.44C602.06 100.59 601.12 95.96 601.9 90.41C603.55 78.65 611.48 70.74 621.65 70.74C626.75 70.74 631.41 73.45 633.92 75.92C631.34 89.38 622.55 106.3 611.07 106.3Z" fill="url(#paint1_linear_1_18)"></path><path d="M724.43 65.9C724.43 64.43 724.71 63.05 725.27 61.76C725.83 60.47 726.6 59.35 727.56 58.38C728.52 57.42 729.65 56.65 730.94 56.09C732.23 55.53 733.61 55.25 735.08 55.25C736.55 55.25 737.93 55.53 739.22 56.09C740.51 56.65 741.63 57.42 742.6 58.38C743.56 59.34 744.33 60.47 744.89 61.76C745.45 63.05 745.73 64.43 745.73 65.9C745.73 67.37 745.45 68.75 744.89 70.04C744.33 71.33 743.56 72.46 742.6 73.42C741.64 74.38 740.51 75.15 739.22 75.71C737.93 76.27 736.55 76.55 735.08 76.55C733.61 76.55 732.23 76.27 730.94 75.71C729.65 75.15 728.52 74.38 727.56 73.42C726.6 72.46 725.83 71.33 725.27 70.04C724.71 68.75 724.43 67.37 724.43 65.9ZM727.35 65.9C727.35 67.01 727.55 68.05 727.95 69.03C728.35 70.01 728.9 70.87 729.61 71.59C730.32 72.31 731.14 72.89 732.07 73.32C733 73.75 734.01 73.96 735.08 73.96C736.15 73.96 737.15 73.74 738.09 73.32C739.02 72.89 739.85 72.31 740.55 71.59C741.26 70.86 741.81 70.01 742.21 69.03C742.61 68.05 742.81 67 742.81 65.9C742.81 64.8 742.61 63.75 742.21 62.76C741.81 61.77 741.26 60.92 740.55 60.2C739.84 59.47 739.02 58.9 738.09 58.47C737.15 58.04 736.15 57.83 735.08 57.83C734.01 57.83 733.01 58.05 732.07 58.47C731.13 58.89 730.31 59.48 729.61 60.2C728.9 60.93 728.35 61.78 727.95 62.76C727.55 63.74 727.35 64.79 727.35 65.9ZM730.99 60.2H734.94C735.25 60.2 735.67 60.22 736.2 60.26C736.73 60.3 737.26 60.43 737.77 60.66C738.28 60.89 738.73 61.25 739.12 61.73C739.5 62.22 739.69 62.91 739.69 63.81C739.69 64.38 739.61 64.85 739.46 65.23C739.31 65.6 739.11 65.91 738.87 66.15C738.63 66.39 738.35 66.57 738.04 66.69C737.73 66.81 737.41 66.9 737.08 66.93L739.94 71.37H736.93L734.38 67.08H733.89V71.37H730.97V60.2H730.99ZM733.88 64.84H735.05C735.22 64.84 735.41 64.84 735.61 64.81C735.81 64.79 736 64.74 736.17 64.67C736.34 64.59 736.48 64.47 736.6 64.31C736.72 64.15 736.77 63.92 736.77 63.64C736.77 63.36 736.71 63.13 736.6 62.97C736.49 62.81 736.34 62.69 736.17 62.61C736 62.53 735.81 62.49 735.61 62.47C735.41 62.45 735.22 62.44 735.05 62.44H733.88V64.84Z" fill="#E8F2E7"></path><path d="M141.93 62.95L117.7 2.97C116.97 1.17 115.23 0 113.29 0H40.53C37.16 0 34.86 3.41 36.12 6.54L46.31 31.77L79 112.68H115.45C118.82 112.68 121.12 109.27 119.86 106.14L105.05 69.49H137.51C140.88 69.49 143.18 66.08 141.92 62.95H141.93Z" fill="url(#paint2_linear_1_18)"></path><path d="M119.82 106.09L95.59 46.11C94.86 44.31 93.12 43.14 91.18 43.14H4.76C1.39 43.14 -0.91 46.55 0.35 49.68L10.54 74.91L42.03 152.85C42.76 154.65 44.5 155.82 46.44 155.82H89.38C92.75 155.82 95.05 152.41 93.79 149.28L78.98 112.63H115.4C118.77 112.63 121.07 109.22 119.81 106.09H119.82Z" fill="url(#paint3_linear_1_18)"></path></g><defs><linearGradient id="paint0_linear_1_18" x1="597.23" y1="97.7" x2="694.15" y2="89.39" gradientUnits="userSpaceOnUse"><stop stop-color="#A1EE7C"></stop><stop offset="1" stop-color="#42D37B"></stop></linearGradient><linearGradient id="paint1_linear_1_18" x1="596.72" y1="91.73" x2="693.64" y2="83.42" gradientUnits="userSpaceOnUse"><stop stop-color="#A1EE7C"></stop><stop offset="0.33" stop-color="#42D37B"></stop><stop offset="1" stop-color="#42D37B" stop-opacity="0"></stop></linearGradient><linearGradient id="paint2_linear_1_18" x1="104.86" y1="14.8" x2="31.18" y2="128.75" gradientUnits="userSpaceOnUse"><stop stop-color="#A1EE7C"></stop><stop offset="1" stop-color="#42D37B"></stop></linearGradient><linearGradient id="paint3_linear_1_18" x1="142.73" y1="0.420008" x2="-21.55" y2="170.55" gradientUnits="userSpaceOnUse"><stop stop-color="#A1EE7C"></stop><stop offset="0.33" stop-color="#42D37B"></stop><stop offset="1" stop-color="#42D37B" stop-opacity="0"></stop></linearGradient><clipPath id="clip0_1_18"><rect width="745.73" height="157.22" fill="white"></rect></clipPath></defs></svg>